<?xml version="1.0" encoding="utf-8"?>
<!-- Generator: Adobe Illustrator 16.0.0, SVG Export Plug-In . SVG Version: 6.00 Build 0)  -->
<!DOCTYPE svg PUBLIC "-//W3C//DTD SVG 1.1//EN" "http://www.w3.org/Graphics/SVG/1.1/DTD/svg11.dtd">
<svg version="1.1" id="Layer_1" xmlns="http://www.w3.org/2000/svg" xmlns:xlink="http://www.w3.org/1999/xlink" x="0px" y="0px"
	 width="841.89px" height="286.14px" viewBox="0 0 841.89 286.14" enable-background="new 0 0 841.89 286.14" xml:space="preserve">
<g>
	<path fill="#FFFFFF" d="M200.368,3.013l48.366,103.712h-11.193l-16.315-34.124h-44.675l-16.156,34.124h-11.562l49-103.712H200.368z
		 M199.059,25.045l-17.773,37.544h35.458L199.059,25.045z"/>
	<path fill="#FFFFFF" d="M264.809,3.013h10.364v93.701h39.906v10.011h-50.27V3.013z"/>
	<path fill="#FFFFFF" d="M331.577,3.013h59.436v10.153h-49.071v32.501h48.647v10.153h-48.647v40.751h48.647v10.151h-59.011V3.013z"
		/>
	<path fill="#FFFFFF" d="M408.918,3.013h10.367v93.701h39.902v10.011h-50.269V3.013z"/>
	<path fill="#FFFFFF" d="M475.966,3.013h10.364v62.608c0,7.427,0.141,12.057,0.423,13.889c0.52,4.09,1.715,7.507,3.596,10.257
		c1.879,2.75,4.773,5.054,8.672,6.909c3.903,1.856,7.824,2.786,11.774,2.786c3.433,0,6.723-0.73,9.871-2.186
		c3.146-1.456,5.778-3.479,7.895-6.062c2.115-2.586,3.668-5.711,4.653-9.378c0.706-2.631,1.061-8.036,1.061-16.215V3.013h10.363
		v62.608c0,9.26-0.905,16.744-2.716,22.455s-5.429,10.682-10.856,14.912c-5.43,4.231-11.999,6.346-19.708,6.346
		c-8.365,0-15.531-1.999-21.503-5.994c-5.969-3.994-9.964-9.283-11.986-15.864c-1.267-4.042-1.902-11.326-1.902-21.856V3.013z"/>
	<path fill="#FFFFFF" d="M568.679,3.013h10.364v103.712h-10.364V3.013z"/>
	<path fill="#FFFFFF" d="M645.173,3.013l48.369,103.712h-11.199l-16.311-34.124h-44.677l-16.154,34.124h-11.559l49-103.712H645.173z
		 M643.865,25.045l-17.773,37.544h35.457L643.865,25.045z"/>
	<path fill="#FFFFFF" d="M105.05,195.53l-8.178,6.271c-4.513-5.87-9.931-10.325-16.251-13.353
		c-6.322-3.033-13.266-4.555-20.833-4.555c-8.274,0-15.935,1.988-22.986,5.96c-7.05,3.973-12.514,9.31-16.393,16.005
		c-3.877,6.696-5.817,14.232-5.817,22.598c0,12.641,4.335,23.197,13.008,31.657c8.671,8.457,19.612,12.688,32.819,12.688
		c14.524,0,26.674-5.688,36.451-17.061l8.178,6.206c-5.17,6.582-11.621,11.667-19.353,15.263
		c-7.731,3.594-16.369,5.393-25.909,5.393c-18.143,0-32.456-6.04-42.938-18.119c-8.79-10.199-13.183-22.513-13.183-36.944
		c0-15.181,5.321-27.957,15.968-38.321c10.644-10.363,23.984-15.546,40.011-15.546c9.682,0,18.424,1.915,26.227,5.745
		C93.673,183.25,100.068,188.622,105.05,195.53z"/>
	<path fill="#FFFFFF" d="M125.918,176.281h59.435v10.152h-49.07v32.502h48.648v10.153h-48.648v40.75h48.648v10.148h-59.012V176.281z
		"/>
	<path fill="#FFFFFF" d="M203.824,176.281h20.658c11.516,0,19.318,0.47,23.407,1.41c6.157,1.418,11.164,4.435,15.018,9.074
		c3.855,4.638,5.783,10.34,5.783,17.117c0,5.648-1.328,10.614-3.985,14.898c-2.656,4.28-6.451,7.517-11.386,9.705
		c-4.936,2.189-11.751,3.307-20.447,3.357l37.298,48.147h-12.82l-37.303-48.147h-5.856v48.147h-10.365V176.281L203.824,176.281z
		 M214.188,186.433v35.254l17.867,0.139c6.921,0,12.04-0.655,15.359-1.974c3.32-1.317,5.91-3.418,7.767-6.311
		c1.862-2.89,2.792-6.122,2.792-9.694c0-3.479-0.941-6.638-2.827-9.48c-1.88-2.844-4.354-4.879-7.415-6.1
		c-3.062-1.222-8.144-1.834-15.252-1.834H214.188L214.188,186.433z"/>
	<path fill="#FFFFFF" d="M333.268,176.281l48.366,103.71H370.44l-16.315-34.124h-44.675l-16.157,34.124H281.73l49.001-103.71
		H333.268z M326.993,150.267h9.8l20.446,18.119h-12.683l-12.414-10.719l-12.92,10.719h-13.167L326.993,150.267z M331.958,198.315
		l-17.773,37.543h35.457L331.958,198.315z"/>
	<path fill="#FFFFFF" d="M392.986,279.991l14.844-103.706h1.687l42.16,85.098l41.758-85.098h1.66l14.926,103.706h-10.164
		l-10.249-74.167l-36.667,74.167h-2.646l-37.112-74.732l-10.186,74.732H392.986z"/>
	<path fill="#FFFFFF" d="M528.915,176.281h10.364v103.71h-10.364V176.281z"/>
	<path fill="#FFFFFF" d="M659.63,195.53l-8.18,6.271c-4.512-5.87-9.929-10.325-16.252-13.353
		c-6.318-3.033-13.265-4.555-20.832-4.555c-8.275,0-15.936,1.988-22.986,5.96c-7.046,3.973-12.514,9.31-16.393,16.005
		c-3.876,6.7-5.814,14.232-5.814,22.598c0,12.641,4.334,23.197,13.007,31.657c8.677,8.457,19.611,12.688,32.822,12.688
		c14.521,0,26.669-5.688,36.452-17.061l8.18,6.206c-5.171,6.582-11.629,11.667-19.357,15.263
		c-7.729,3.594-16.367,5.393-25.906,5.393c-18.143,0-32.457-6.04-42.939-18.119c-8.788-10.199-13.188-22.513-13.188-36.944
		c0-15.181,5.325-27.957,15.971-38.321c10.649-10.363,23.983-15.546,40.011-15.546c9.682,0,18.425,1.915,26.227,5.745
		C648.253,183.25,654.644,188.622,659.63,195.53z"/>
	<path fill="#FFFFFF" d="M722.801,176.281l48.368,103.71h-11.204l-16.309-34.124h-44.675l-16.154,34.124h-11.562l49-103.71H722.801z
		 M721.496,198.315l-17.777,37.543h35.461L721.496,198.315z"/>
	<path fill="#FFFFFF" d="M776.525,260.673l8.811-5.286c6.207,11.42,13.374,17.134,21.503,17.134c3.479,0,6.746-0.81,9.802-2.431
		c3.055-1.623,5.383-3.796,6.981-6.523c1.596-2.728,2.396-5.618,2.396-8.673c0-3.475-1.175-6.885-3.523-10.221
		c-3.244-4.605-9.163-10.153-17.77-16.642c-8.646-6.534-14.028-11.258-16.145-14.171c-3.668-4.889-5.501-10.179-5.501-15.865
		c0-4.513,1.082-8.623,3.244-12.337c2.161-3.714,5.204-6.639,9.131-8.776c3.926-2.139,8.191-3.21,12.796-3.21
		c4.889,0,9.459,1.21,13.712,3.63c4.257,2.427,8.757,6.877,13.505,13.361l-8.462,6.415c-3.903-5.17-7.229-8.576-9.975-10.222
		c-2.751-1.646-5.749-2.47-8.993-2.47c-4.181,0-7.601,1.271-10.256,3.811c-2.654,2.535-3.983,5.66-3.983,9.374
		c0,2.257,0.469,4.442,1.409,6.557c0.94,2.116,2.655,4.42,5.147,6.908c1.36,1.318,5.829,4.773,13.396,10.368
		c8.978,6.623,15.134,12.525,18.47,17.697c3.334,5.17,5.002,10.363,5.002,15.579c0,7.521-2.852,14.052-8.564,19.6
		c-5.711,5.548-12.656,8.318-20.832,8.318c-6.297,0-12.007-1.68-17.134-5.039C785.571,274.201,780.848,268.571,776.525,260.673z"/>
</g>
</svg>
